<svg viewBox="0 0 96 96" xmlns="http://www.w3.org/2000/svg" xmlns:xlink="http://www.w3.org/1999/xlink" id="Icons_Balloons" overflow="hidden"><path d="M48.7 62.8C43 56.3 39.6 45.2 42.4 33.4 42.5 33.2 42.5 32.9 42.6 32.7 38.1 28.7 32.2 27.2 26.3 28.6 16.1 31 9.7 41.2 12.6 53.6 15.3 65 25.2 75.9 34.7 75.6L34.8 75.9 34.2 82.2 42 80.4 38.7 75 38.7 74.9C43.4 73.1 46.8 68.5 48.7 62.8Z"/><path d="M55.3 16C50.7 9.1 43 5.9 35.3 7.7 27 9.7 21.2 16.9 21 26.2 22.4 25.5 23.9 25 25.5 24.7 27.2 24.3 28.9 24.1 30.7 24.1 35.7 24.1 40.3 25.8 44.1 28.7 46.4 23 50.3 18.6 55.3 16Z"/><path d="M69.7 18C59.5 15.6 49.3 21.9 46.4 34.4 43.6 46.2 48.1 60.8 57.3 64.3L57.3 64.4 54 69.8 61.8 71.6 61.2 65.3 61.3 65C70.8 65.2 80.8 54.4 83.4 43 86.2 30.6 79.9 20.4 69.7 18Z"/><path d="M55.3 88.7C56.6 86 58.3 81.6 59 76 59.1 74.9 58.4 73.9 57.3 73.8 56.2 73.6 55.2 74.4 55.1 75.5 54.2 82.1 51.9 87 50.9 88.8L55.3 88.7Z"/><path d="M38.8 88.7 43.1 88.7C42.3 86.6 42 85.3 42 85.3 41.8 84.2 40.7 83.5 39.6 83.8 38.5 84 37.8 85.1 38.1 86.2 38.1 86.3 38.3 87.2 38.8 88.7Z"/></svg>